<svg width="475" height="67" viewBox="0 0 475 67" fill="none" xmlns="http://www.w3.org/2000/svg">
<mask id="mask0_2_12" style="mask-type:luminance" maskUnits="userSpaceOnUse" x="0" y="0" width="475" height="67">
<path d="M475 0H0V67H475V0Z" fill="white"/>
</mask>
<g mask="url(#mask0_2_12)">
<mask id="mask1_2_12" style="mask-type:luminance" maskUnits="userSpaceOnUse" x="0" y="0" width="475" height="67">
<path d="M0 0H475V67H0V0Z" fill="white"/>
</mask>
<g mask="url(#mask1_2_12)">
<path d="M124.174 13.7341H119.682V39.5313C119.682 43.8193 118.489 47.0353 116.103 49.1798C113.765 51.3238 110.606 52.3958 106.629 52.3958C103.073 52.3958 100.29 51.643 98.2783 50.1376C96.3137 48.5867 94.8394 46.739 93.8571 44.595L99.3311 40.5575C100.22 42.5193 101.202 43.8193 102.279 44.4583C103.401 45.051 104.617 45.3477 105.928 45.3477C108.033 45.3477 109.553 44.823 110.489 43.7739C111.424 42.679 111.893 41.2873 111.893 39.5997V13.7341H103.472V7.23329H124.174V13.7341ZM131.757 14.6235V6.54935H139.406V14.6231L131.757 14.6235ZM144.318 51.7114H127.476V46.1005H132.178V26.6669H127.195V20.9876H139.617V46.1005H144.318V51.7114ZM183.969 26.6669H179.407V50.5481C179.407 55.4293 178.003 59.3755 175.197 62.386C172.436 65.3969 168.296 66.9024 162.775 66.9024C159.5 66.9024 156.436 66.218 153.582 64.8497C150.728 63.4809 148.716 61.1315 147.547 57.8016L153.371 54.7224C155.336 58.919 158.517 61.0176 162.916 61.0176C165.535 61.0176 167.688 60.1053 169.372 58.2806C171.056 56.4558 171.898 53.8554 171.898 50.4798V45.895C171.009 47.5372 169.723 48.9513 168.039 50.1376C166.4 51.2779 164.132 51.8481 161.231 51.8481C157.535 51.8481 154.33 50.5935 151.617 48.0849C148.949 45.5303 147.616 41.835 147.616 36.9993C147.616 32.62 148.809 28.7655 151.195 25.4353C153.628 22.0592 157.137 20.3715 161.723 20.3715C166.495 20.3715 169.886 22.1734 171.898 25.7775V20.9872H183.969V26.6669ZM171.898 37.0676V34.6043C171.898 32.0503 171.15 30.0196 169.652 28.5145C168.155 27.0091 166.284 26.2564 164.038 26.2564C161.418 26.2564 159.406 27.1917 158.003 29.0623C156.6 30.8866 155.898 33.3728 155.898 36.5204C155.898 39.7593 156.6 42.1547 158.003 43.7052C159.406 45.2106 161.184 45.9633 163.336 45.9633C166.004 45.9633 168.085 45.051 169.583 43.2262C171.126 41.4015 171.898 39.3483 171.898 37.0676ZM214.465 42.5423C214.465 45.7353 213.109 48.1761 210.395 49.8637C207.729 51.5518 204.314 52.3958 200.15 52.3958C197.904 52.3958 195.635 52.1448 193.343 51.6431C191.097 51.1413 189.062 50.3885 187.237 49.3849L188.36 41.4473L194.255 41.9946L194.185 45.9633C195.083 46.3312 196.026 46.5841 196.992 46.7161C198.021 46.8533 198.933 46.9216 199.729 46.9216C201.646 46.9216 203.308 46.6023 204.711 45.9633C206.162 45.2794 206.887 44.2757 206.887 42.9529C206.887 41.6753 206.232 40.763 204.921 40.2157C203.659 39.668 202.068 39.2579 200.15 38.9837C198.231 38.6644 196.314 38.2538 194.395 37.752C192.477 37.2048 190.862 36.3378 189.553 35.1521C188.289 33.9199 187.658 32.0952 187.658 29.6778C187.658 26.1197 189.038 23.6789 191.799 22.356C194.606 21.033 197.553 20.3715 200.641 20.3715C204.711 20.3715 208.548 21.3069 212.15 23.177L212.922 30.7728L207.027 31.4567L206.396 26.872C204.571 26.188 202.723 25.8458 200.851 25.8458C199.401 25.8458 198.161 26.1426 197.132 26.7352C196.15 27.2825 195.658 28.1723 195.658 29.404C195.658 30.681 196.29 31.571 197.553 32.0727C198.816 32.5746 200.384 32.9852 202.255 33.3044C204.154 33.5843 206.03 33.996 207.869 34.5365C209.741 35.0378 211.308 35.9048 212.571 37.1364C213.834 38.3222 214.465 40.1245 214.465 42.5423ZM221.706 23.2454C224.045 22.1504 226.127 21.3981 227.952 20.9872C229.777 20.5766 231.882 20.3711 234.268 20.3711C237.777 20.3711 240.654 21.2381 242.9 22.972C245.193 24.7055 246.339 27.3054 246.339 30.7723V44.595C246.339 46.4197 247.11 47.3321 248.654 47.3321C249.076 47.3321 249.614 47.2409 250.269 47.0583L250.339 51.0953C248.795 51.9623 247.11 52.3958 245.286 52.3958C241.309 52.3958 239.157 50.3655 238.83 46.3055V46.1689C237.893 47.7656 236.56 49.2023 234.829 50.4798C233.145 51.7568 231.04 52.3958 228.513 52.3958C226.314 52.3958 224.139 51.7568 221.986 50.4798C219.882 49.1569 218.829 46.8757 218.829 43.6368C218.829 39.8506 220.373 37.3644 223.461 36.1782C226.549 34.9465 229.893 34.331 233.496 34.331C234.385 34.331 235.298 34.3535 236.233 34.3993C237.101 34.4395 237.967 34.5078 238.83 34.6043V32.8938C238.83 31.0691 238.502 29.427 237.848 27.9669C237.192 26.5073 235.555 25.777 232.934 25.777C231.952 25.777 231.017 25.8458 230.128 25.9825C229.286 26.1197 228.467 26.393 227.671 26.8036L226.408 31.5251L220.373 30.909L221.706 23.2454ZM238.83 39.5313V38.4364C238.034 38.3452 237.215 38.2538 236.373 38.1625C235.511 38.0703 234.644 38.0246 233.776 38.0259C231.905 38.0259 230.221 38.3452 228.724 38.9837C227.273 39.6221 226.549 40.8997 226.549 42.8157C226.549 45.5987 228.069 46.9899 231.11 46.9899C232.888 46.9899 234.572 46.3739 236.163 45.1423C237.753 43.8652 238.642 41.9946 238.83 39.5313ZM303.147 26.5986H299.988L291.146 51.7114H285.532L276.831 31.4567H276.48L268.269 51.7114H262.935L253.882 26.5986H250.795V20.9872H266.795V26.5986H261.882L266.725 41.379H267.145L275.216 20.9872H279.848L288.901 41.1735H289.322L293.112 26.5986H288.409V20.9872H303.147V26.5986ZM339.62 38.6419C339.62 43.0666 338.029 46.4652 334.847 48.8376C331.713 51.2096 327.549 52.3958 322.356 52.3958C319.268 52.3958 316.274 52.0307 313.373 51.3009C310.519 50.571 308.25 49.5215 306.566 48.1532L307.829 37.9575L314.075 38.5735L313.934 44.0474C315.478 44.823 316.882 45.3248 318.146 45.5528C319.455 45.7353 320.672 45.8267 321.794 45.8267C324.508 45.8267 326.754 45.4161 328.532 44.5945C330.356 43.7281 331.269 42.0175 331.269 39.463C331.269 36.68 330.24 34.8328 328.181 33.9204C326.122 32.9627 323.76 32.2324 321.092 31.7305C318.886 31.3065 316.708 30.7582 314.566 30.0884C312.367 29.404 310.543 28.2637 309.092 26.6669C307.642 25.0706 306.917 22.7206 306.917 19.6188C306.917 14.9657 308.531 11.6355 311.759 9.62822C315.034 7.57548 318.683 6.54935 322.707 6.54935C325.514 6.54935 328.228 6.95989 330.847 7.78098C333.514 8.60205 335.596 9.67405 337.093 10.997L337.514 20.3715L331.269 20.9188L330.637 15.1712C329.327 14.441 328.017 13.9391 326.707 13.6658C325.397 13.3919 324.134 13.2552 322.918 13.2552C320.718 13.2552 318.894 13.6883 317.444 14.5552C315.993 15.4222 315.268 16.8134 315.268 18.7294C315.268 20.9642 316.157 22.4931 317.935 23.3138C319.759 24.0894 321.794 24.728 324.04 25.2298C325.959 25.6403 328.134 26.1876 330.567 26.8724C333 27.5563 335.104 28.788 336.883 30.5673C338.707 32.3008 339.62 34.9919 339.62 38.6419ZM369.576 42.679C368.687 49.1569 364.99 52.3958 358.487 52.3958C355.118 52.3958 352.428 51.5289 350.417 49.7954C348.452 48.0619 347.469 45.6441 347.469 42.5423V26.393H342.838V20.9872H347.469V11.4759H354.978V20.9872H366.697V26.393H354.978V41.379C354.978 44.6179 356.428 46.2372 359.329 46.2372C360.125 46.2372 361.014 45.9633 361.996 45.4161C362.978 44.823 363.657 43.3405 364.031 40.9685L369.576 42.679ZM374.466 23.2454C376.806 22.1504 378.887 21.3981 380.712 20.9872C382.536 20.5766 384.642 20.3711 387.028 20.3711C390.537 20.3711 393.415 21.2381 395.66 22.972C397.952 24.7055 399.099 27.3054 399.099 30.7723V44.595C399.099 46.4197 399.871 47.3321 401.415 47.3321C401.836 47.3321 402.373 47.2409 403.029 47.0583L403.099 51.0953C401.555 51.9623 399.871 52.3958 398.046 52.3958C394.069 52.3958 391.917 50.3655 391.589 46.3055V46.1689C390.654 47.7656 389.321 49.2023 387.589 50.4798C385.905 51.7568 383.8 52.3958 381.273 52.3958C379.075 52.3958 376.899 51.7568 374.747 50.4798C372.641 49.1569 371.589 46.8757 371.589 43.6368C371.589 39.8506 373.132 37.3644 376.22 36.1782C379.308 34.9465 382.654 34.331 386.257 34.331C387.145 34.331 388.057 34.3535 388.994 34.3993C389.861 34.4395 390.727 34.5078 391.589 34.6043V32.8938C391.589 31.0691 391.262 29.427 390.607 27.9669C389.952 26.5073 388.315 25.777 385.695 25.777C384.713 25.777 383.776 25.8458 382.887 25.9825C382.045 26.1197 381.227 26.393 380.431 26.8036L379.168 31.5251L373.133 30.909L374.466 23.2454ZM391.589 39.5313V38.4364C390.794 38.3452 389.976 38.2538 389.134 38.1625C388.271 38.0703 387.404 38.0246 386.537 38.0259C384.665 38.0259 382.981 38.3452 381.484 38.9837C380.034 39.6221 379.308 40.8997 379.308 42.8157C379.308 45.5987 380.829 46.9899 383.871 46.9899C385.648 46.9899 387.332 46.3739 388.923 45.1423C390.514 43.8652 391.403 41.9946 391.589 39.5313ZM435.455 40.6946C435.128 43.4317 433.888 46.0775 431.736 48.6321C429.584 51.1413 426.122 52.3958 421.35 52.3958C416.859 52.3958 413.186 51.0728 410.332 48.4271C407.525 45.7813 406.122 41.9263 406.122 36.8626C406.122 31.8902 407.572 27.8985 410.472 24.888C413.42 21.8771 417.257 20.3715 421.982 20.3715C423.853 20.3715 425.725 20.5996 427.596 21.0559C429.467 21.512 431.315 22.2647 433.14 23.3138L434.402 31.9356L428.368 32.5517L427.315 27.4884C425.612 26.6734 423.738 26.2517 421.841 26.2564C416.601 26.2564 413.982 29.6778 413.982 36.5204C413.982 43.1808 416.671 46.5111 422.052 46.5111C425.982 46.5111 428.345 44.1845 429.139 39.5313L435.455 40.6946ZM474.041 51.7114H458.319V46.1005H461.968L455.372 38.4364H450.319V46.1005H453.828V51.7114H438.108V46.1005H442.81V10.2442H437.828V4.63333H450.319V33.1672H455.723L461.267 26.6664H457.126V20.9872H472.496V26.6664H468.567L461.126 35.1516L470.67 46.1H474.041V51.7114Z" fill="black"/>
<path d="M30.7812 59.9772C29.1274 59.046 27.5032 58.0611 25.813 57.1978C23.5072 56.0205 23.3674 52.9372 25.6553 51.7262C27.0425 50.9924 28.0663 49.9069 28.4675 48.3637C29.032 46.1958 28.4813 44.3176 26.752 42.8693C25.0581 41.4523 23.0691 41.0872 20.981 41.9241C18.8735 42.7672 17.7367 44.3715 17.549 46.596C17.5287 46.8223 17.5407 47.0511 17.5342 47.2773C17.4687 49.6893 15.0181 51.0725 12.8589 49.8764C9.39003 47.9541 5.9465 45.9926 2.49376 44.0433C2.31005 43.9404 2.13516 43.8233 1.9708 43.693C-0.0242042 42.0877 -0.548549 39.5274 0.735335 37.3222C2.67182 33.9918 4.6349 30.6762 6.62442 27.3756C7.9521 25.1745 10.8293 25.2298 12.1469 27.4458C14.2498 30.9846 19.1262 31.2962 21.5408 28.0177C22.8118 26.2924 22.9658 24.397 22.0098 22.4994C21.0538 20.6018 19.4217 19.614 17.2478 19.4741C16.6612 19.4368 16.0363 19.4372 15.5046 19.2312C13.7559 18.5595 13.0282 16.6385 13.9671 15.0058C15.9579 11.5406 17.9746 8.08453 20.0886 4.69047C21.455 2.49566 24.1745 1.8297 26.5657 2.91564C26.8529 3.04694 27.1343 3.19534 27.4096 3.35047C30.5889 5.13834 33.788 6.89562 36.9349 8.73788C37.9338 9.32293 38.9645 8.76625 38.9295 7.60474C38.8345 4.42247 40.9139 1.61071 43.9258 0.619655C47.0562 -0.411876 50.4494 0.592674 52.4052 3.13013C54.3739 5.68198 54.492 9.16462 52.5413 11.7525C51.8951 12.6082 50.9972 13.3686 50.0523 13.9032C49.0964 14.4428 49.0617 15.5859 50.0786 16.1372C53.3602 17.9178 56.5986 19.7749 59.8451 21.614C62.0145 22.843 63.0415 24.8264 62.5817 26.9956C62.444 27.6213 62.2086 28.2226 61.8835 28.7786C60.0199 31.9819 58.0821 35.1458 56.2407 38.3618C54.8688 40.7585 51.7379 40.6506 50.519 38.3766C49.4238 36.3297 47.1373 35.3261 44.8421 35.671C42.6262 36.0037 40.7847 37.6801 40.2844 39.8223C39.7794 41.9816 40.6879 44.2317 42.6105 45.5187C43.5439 46.1437 44.6004 46.5124 45.7262 46.4284C48.4627 46.2246 50.0343 48.9855 48.5674 51.3346C46.6356 54.4274 44.8389 57.5975 42.9776 60.7317C41.3349 63.4985 38.4084 64.2656 35.5745 62.6778C33.9743 61.7812 32.3768 60.8779 30.7789 59.9781L30.7812 59.9772Z" fill="url(#paint0_linear_2_12)"/>
</g>
</g>
<defs>
<linearGradient id="paint0_linear_2_12" x1="-1.85134" y1="9.90029" x2="83.3858" y2="71.7611" gradientUnits="userSpaceOnUse">
<stop offset="0.184"/>
<stop offset="0.958"/>
</linearGradient>
</defs>
</svg>
